<?xml version="1.0" standalone="no"?>
<!DOCTYPE svg PUBLIC "-//W3C//DTD SVG 20010904//EN"
 "http://www.w3.org/TR/2001/REC-SVG-20010904/DTD/svg10.dtd">
<svg version="1.0" xmlns="http://www.w3.org/2000/svg"
 width="960.000000pt" height="560.000000pt" viewBox="0 0 960.000000 560.000000"
 preserveAspectRatio="xMidYMid meet">

<g transform="translate(0.000000,560.000000) scale(0.100000,-0.100000)"
fill="#000000" stroke="none">
<path d="M2640 3600 l0 -710 85 0 85 0 0 -70 0 -70 2080 0 2080 0 0 710 0 710
-85 0 -85 0 0 70 0 70 -2080 0 -2080 0 0 -710z m4060 590 c0 -20 -7 -20 -1945
-20 l-1945 0 0 -590 0 -590 -35 0 -35 0 0 610 0 610 1980 0 c1973 0 1980 0
1980 -20z m0 -660 l0 -540 -1895 0 -1895 0 0 540 0 540 1895 0 1895 0 0 -540z
m170 -70 l0 -610 -1980 0 c-1973 0 -1980 0 -1980 20 0 20 7 20 1945 20 l1945
0 0 590 0 590 35 0 35 0 0 -610z"/>
<path d="M2995 3985 c-14 -13 -25 -36 -25 -50 0 -14 11 -37 25 -50 13 -14 36
-25 50 -25 14 0 37 11 50 25 14 13 25 36 25 50 0 14 -11 37 -25 50 -13 14 -36
25 -50 25 -14 0 -37 -11 -50 -25z"/>
<path d="M3170 3812 l-35 -7 -3 -294 c-3 -320 -4 -311 55 -311 63 0 63 1 63
132 l0 121 47 -6 c61 -7 75 -25 102 -134 12 -48 27 -93 33 -100 13 -16 90 -17
104 -3 8 8 6 28 -6 68 -10 31 -25 83 -34 114 -9 31 -25 67 -35 79 -18 23 -18
23 5 42 58 45 74 142 37 213 -31 61 -93 88 -207 90 -50 1 -107 -1 -126 -4z
m253 -61 c84 -52 76 -180 -14 -226 -34 -18 -37 -40 -9 -55 31 -16 50 -52 71
-132 23 -88 23 -98 4 -98 -8 0 -18 16 -24 38 -5 20 -15 57 -21 82 -27 101 -63
130 -165 130 l-55 0 0 -125 c0 -118 -1 -125 -20 -125 -19 0 -20 7 -20 264 l0
265 33 4 c72 11 186 -1 220 -22z"/>
<path d="M3215 3748 c-3 -8 -4 -66 -3 -129 l3 -114 35 -3 c19 -2 58 1 86 7 70
16 105 54 112 119 4 46 2 53 -31 88 -35 38 -37 39 -116 42 -63 3 -82 1 -86
-10z m154 -43 c32 -16 41 -33 41 -73 -1 -52 -43 -82 -114 -82 l-46 0 0 85 0
85 45 0 c26 0 59 -7 74 -15z"/>
<path d="M4045 3811 l-40 -6 -3 -289 c-2 -217 1 -292 10 -303 10 -12 36 -14
143 -11 159 5 212 24 280 100 54 60 75 123 75 223 0 152 -68 244 -207 280 -57
15 -181 18 -258 6z m304 -68 c43 -21 63 -40 86 -77 28 -46 30 -56 30 -145 0
-88 -3 -101 -30 -150 -53 -96 -136 -131 -305 -131 l-90 0 0 264 0 265 38 4
c20 3 77 3 126 2 73 -3 99 -9 145 -32z"/>
<path d="M4092 3752 c-9 -7 -12 -63 -10 -248 l3 -239 70 -3 c128 -6 206 33
251 124 23 47 28 72 28 128 0 39 -5 87 -12 107 -17 50 -75 105 -130 123 -48
17 -178 21 -200 8z m213 -58 c60 -31 85 -82 85 -174 0 -149 -70 -220 -216
-220 l-54 0 0 211 0 211 73 -4 c47 -2 86 -10 112 -24z"/>
<path d="M3592 3508 l3 -303 175 0 175 0 3 44 c2 28 -1 47 -10 52 -7 5 -64 9
-125 9 l-113 0 0 80 0 80 110 0 110 0 0 50 0 50 -110 0 -110 0 0 70 0 70 115
0 c113 0 115 0 121 24 3 13 4 35 2 47 l-3 24 -173 3 -172 2 2 -302z m298 252
c0 -5 -49 -11 -112 -12 l-113 -3 0 -105 0 -105 108 -3 c59 -1 107 -7 107 -12
0 -5 -48 -11 -107 -12 l-108 -3 -3 -114 c-2 -85 1 -117 10 -123 7 -4 64 -8
126 -8 68 0 112 -4 112 -10 0 -6 -53 -10 -140 -10 l-140 0 0 265 0 265 130 0
c77 0 130 -4 130 -10z"/>
<path d="M4572 3508 l3 -303 50 0 50 0 3 127 3 127 107 3 107 3 0 45 0 45
-107 3 -108 3 0 74 0 75 115 0 c113 0 115 0 121 24 3 13 4 35 2 47 l-3 24
-173 3 -172 2 2 -302z m298 252 c0 -5 -49 -11 -112 -12 l-113 -3 0 -110 0
-110 108 -3 c59 -1 107 -7 107 -12 0 -5 -48 -11 -107 -12 l-108 -3 -3 -127
c-2 -105 -5 -128 -17 -128 -13 0 -15 39 -15 265 l0 265 130 0 c77 0 130 -4
130 -10z"/>
<path d="M4982 3508 l3 -303 164 -3 c180 -3 191 0 191 52 0 51 -12 56 -137 56
l-113 0 0 250 0 250 -55 0 -55 0 2 -302z m68 13 c0 -218 2 -250 16 -255 9 -3
63 -6 120 -6 63 0 104 -4 104 -10 0 -6 -52 -10 -135 -10 l-135 0 0 265 c0 229
2 265 15 265 13 0 15 -34 15 -249z"/>
<path d="M5382 3508 l3 -303 175 0 175 0 3 44 c2 28 -1 47 -10 52 -7 5 -64 9
-125 9 l-113 0 0 80 0 80 110 0 110 0 0 50 0 50 -110 0 -110 0 0 70 0 70 115
0 c113 0 115 0 121 24 3 13 4 35 2 47 l-3 24 -173 3 -172 2 2 -302z m298 252
c0 -5 -49 -11 -112 -12 l-113 -3 0 -105 0 -105 108 -3 c59 -1 107 -7 107 -12
0 -5 -48 -11 -107 -12 l-108 -3 -3 -114 c-2 -85 1 -117 10 -123 7 -4 64 -8
126 -8 68 0 112 -4 112 -10 0 -6 -53 -10 -140 -10 l-140 0 0 265 0 265 130 0
c77 0 130 -4 130 -10z"/>
<path d="M5797 3803 c-4 -3 -7 -138 -7 -299 0 -257 2 -293 16 -298 9 -3 86 -6
173 -6 171 0 181 3 181 55 0 50 -13 55 -137 55 l-113 0 0 80 0 79 108 3 107 3
0 45 0 45 -107 3 -108 3 0 69 0 69 113 3 112 3 3 48 3 47 -169 0 c-93 0 -172
-3 -175 -7z m303 -43 c0 -6 -45 -10 -115 -10 l-115 0 0 -110 0 -110 110 0 c67
0 110 -4 110 -10 0 -6 -43 -10 -110 -10 l-111 0 3 -122 3 -123 118 -3 c168 -4
150 -22 -23 -22 l-140 0 0 265 0 265 135 0 c83 0 135 -4 135 -10z"/>
<path d="M6212 3508 l3 -303 50 0 50 0 5 117 c8 178 14 179 125 15 l90 -132
53 -3 c41 -2 54 0 58 13 4 11 -31 71 -101 175 l-108 158 24 30 c13 16 59 71
102 121 42 51 75 96 72 102 -4 5 -32 9 -65 9 l-58 0 -93 -115 -94 -114 -3 114
-3 115 -54 0 -55 0 2 -302z m70 130 c2 -109 6 -133 18 -136 9 -1 58 51 123
133 60 74 115 135 123 135 8 0 14 -3 14 -6 0 -4 -38 -51 -85 -105 -47 -54 -85
-102 -85 -107 0 -5 45 -75 100 -156 55 -80 100 -148 100 -151 0 -3 -7 -5 -15
-5 -8 0 -55 61 -106 136 -50 75 -99 138 -107 142 -10 3 -27 -8 -49 -34 -32
-39 -33 -40 -33 -141 0 -85 -3 -103 -15 -103 -13 0 -15 36 -15 265 0 227 2
265 15 265 12 0 15 -24 17 -132z"/>
</g>
</svg>
